G04*
G04 #@! TF.GenerationSoftware,Altium Limited,Altium Designer,18.1.7 (191)*
G04*
G04 Layer_Color=8421504*
%FSLAX25Y25*%
%MOIN*%
G70*
G01*
G75*
%ADD15R,0.03200X0.03200*%
G04:AMPARAMS|DCode=16|XSize=50mil|YSize=50mil|CornerRadius=25mil|HoleSize=0mil|Usage=FLASHONLY|Rotation=90.000|XOffset=0mil|YOffset=0mil|HoleType=Round|Shape=RoundedRectangle|*
%AMROUNDEDRECTD16*
21,1,0.05000,0.00000,0,0,90.0*
21,1,0.00000,0.05000,0,0,90.0*
1,1,0.05000,0.00000,0.00000*
1,1,0.05000,0.00000,0.00000*
1,1,0.05000,0.00000,0.00000*
1,1,0.05000,0.00000,0.00000*
%
%ADD16ROUNDEDRECTD16*%
%ADD17R,0.03600X0.02800*%
%ADD18R,0.02200X0.04800*%
%ADD19R,0.02800X0.03600*%
%ADD20R,0.04000X0.04600*%
%ADD21R,0.13400X0.06300*%
%ADD22R,0.18200X0.04000*%
%ADD23R,0.02200X0.05000*%
%ADD24R,0.05000X0.02200*%
%ADD25R,0.02800X0.04400*%
%ADD26R,0.09900X0.04800*%
%ADD27R,0.06700X0.02800*%
D15*
X-40000Y-131948D02*
D03*
Y-125995D02*
D03*
X-83249Y-59800D02*
D03*
Y-53847D02*
D03*
D16*
X-15000Y90000D02*
D03*
X-25000D02*
D03*
X-5000D02*
D03*
X4800D02*
D03*
X-65000Y35000D02*
D03*
X20000Y-30000D02*
D03*
X-30000Y-95000D02*
D03*
X19841Y-140000D02*
D03*
D17*
X-95000Y-65000D02*
D03*
Y-59841D02*
D03*
X55000Y-109600D02*
D03*
Y-104441D02*
D03*
X-74604Y-65000D02*
D03*
Y-70159D02*
D03*
X16900Y-104441D02*
D03*
Y-109600D02*
D03*
X40157D02*
D03*
Y-104441D02*
D03*
X30000Y-109600D02*
D03*
Y-104441D02*
D03*
X-40000Y-112200D02*
D03*
Y-107041D02*
D03*
D18*
X-58740Y-59800D02*
D03*
X-51200D02*
D03*
Y-70118D02*
D03*
X-55000D02*
D03*
X-58740D02*
D03*
D19*
X-55159Y-85000D02*
D03*
X-50000D02*
D03*
X19841Y-71122D02*
D03*
X25000D02*
D03*
D20*
X59900D02*
D03*
X50000D02*
D03*
X40157D02*
D03*
X59900Y-48800D02*
D03*
X50000D02*
D03*
X40157D02*
D03*
D21*
X-96000Y15450D02*
D03*
Y-11336D02*
D03*
D22*
X-75433Y6050D02*
D03*
Y-1887D02*
D03*
D23*
X-11024Y16900D02*
D03*
X-7874D02*
D03*
X-4724D02*
D03*
X-1575D02*
D03*
X1600D02*
D03*
X4800D02*
D03*
X7900D02*
D03*
X11100D02*
D03*
Y-16900D02*
D03*
X7900D02*
D03*
X4800D02*
D03*
X1600D02*
D03*
X-1575D02*
D03*
X-4724D02*
D03*
X-7874Y-16900D02*
D03*
X-11024Y-16900D02*
D03*
D24*
X16900Y11100D02*
D03*
Y7900D02*
D03*
Y4800D02*
D03*
Y1600D02*
D03*
Y-1575D02*
D03*
Y-4724D02*
D03*
X16900Y-7874D02*
D03*
X16900Y-11024D02*
D03*
X-16900D02*
D03*
Y-7874D02*
D03*
Y-4724D02*
D03*
Y-1575D02*
D03*
Y1600D02*
D03*
Y4800D02*
D03*
Y7900D02*
D03*
Y11100D02*
D03*
D25*
X-68760Y84895D02*
D03*
Y71105D02*
D03*
X-51200D02*
D03*
Y84895D02*
D03*
D26*
X70000Y6715D02*
D03*
Y-6281D02*
D03*
D27*
X-40000Y6300D02*
D03*
Y11100D02*
D03*
Y15824D02*
D03*
M02*
