G04*
G04 #@! TF.GenerationSoftware,Altium Limited,Altium Designer,18.1.7 (191)*
G04*
G04 Layer_Color=65535*
%FSLAX25Y25*%
%MOIN*%
G70*
G01*
G75*
%ADD10C,0.00600*%
%ADD11C,0.00800*%
%ADD12C,0.01600*%
%ADD13C,0.01000*%
%ADD14R,0.02800X0.01600*%
D10*
X-9300Y10800D02*
G03*
X-9300Y10800I-1500J0D01*
G01*
X-13799Y12500D02*
X-12402Y13800D01*
X13800D01*
X-13799Y12500D02*
X-13799Y-13799D01*
X13800D01*
Y13800D01*
D11*
X-55000Y77995D02*
G03*
X-55000Y77995I-5000J0D01*
G01*
X-39900Y-129648D02*
X-39140Y-128396D01*
X-41000D02*
X-40000Y-129648D01*
X-41900D02*
X-40000D01*
X-38189D01*
X-83149Y-57500D02*
X-82389Y-56249D01*
X-84249D02*
X-83249Y-57500D01*
X-85149D02*
X-83249D01*
X-81438D01*
X-56057Y-61800D02*
X-53900D01*
X-60600Y-66691D02*
Y-63300D01*
X-49400Y-66691D02*
Y-63300D01*
X35827Y-53100D02*
X64200D01*
Y-66890D02*
Y-53100D01*
X35827Y-66890D02*
X64200D01*
X35827D02*
Y-53100D01*
X-101900Y-5824D02*
Y9950D01*
X-86063Y17850D02*
X-72283D01*
Y14650D02*
Y17850D01*
X-82126Y14650D02*
X-72283D01*
X-82126Y9950D02*
Y14650D01*
Y-10549D02*
Y-5824D01*
Y-10549D02*
X-72283D01*
Y-13698D02*
Y-10549D01*
X-86063Y-13698D02*
X-72283D01*
X-68661Y74845D02*
X-67087D01*
X-68661Y81195D02*
X-67087D01*
X-52900Y74845D02*
X-51300D01*
X-52900Y81195D02*
X-51300D01*
X-65118Y69333D02*
X-54800D01*
X-51300Y74845D02*
Y81195D01*
X-65118Y86695D02*
X-54800D01*
X-68661Y74845D02*
Y81195D01*
X64937Y-2181D02*
X75200D01*
X76200Y-8481D02*
Y-3781D01*
X75000Y-10081D02*
X76200Y-8481D01*
X65276Y-10081D02*
X75000D01*
X63898Y-8481D02*
X65276Y-10081D01*
X63898Y-8481D02*
Y-3781D01*
X76200Y3763D02*
Y10455D01*
X63701D02*
X76200D01*
X63701Y3763D02*
Y10455D01*
X-42559Y18187D02*
X-37400D01*
X-42559Y4000D02*
X-37400D01*
D12*
X54880Y-107000D02*
X55200D01*
X-52559Y-85200D02*
Y-84880D01*
X22441Y-71322D02*
Y-71002D01*
X40037Y-107000D02*
X40357D01*
X29880D02*
X30200D01*
D13*
X-42800Y27598D02*
Y26598D01*
X-40801Y24599D01*
X-38801Y26598D01*
Y27598D01*
X-40801Y24599D02*
Y21600D01*
X-36802D02*
X-34803D01*
X-35802D01*
Y27598D01*
X-36802Y26598D01*
X-169000Y20198D02*
Y16199D01*
X-167001Y14200D01*
X-165001Y16199D01*
Y20198D01*
X-159003Y19198D02*
X-160003Y20198D01*
X-162002D01*
X-163002Y19198D01*
Y15200D01*
X-162002Y14200D01*
X-160003D01*
X-159003Y15200D01*
X-153005Y19198D02*
X-154005Y20198D01*
X-156004D01*
X-157004Y19198D01*
Y15200D01*
X-156004Y14200D01*
X-154005D01*
X-153005Y15200D01*
X-59950Y-47952D02*
Y-52950D01*
X-58950Y-53950D01*
X-56951D01*
X-55951Y-52950D01*
Y-47952D01*
X-49953Y-53950D02*
X-53952D01*
X-49953Y-49951D01*
Y-48952D01*
X-50953Y-47952D01*
X-52952D01*
X-53952Y-48952D01*
X-18775Y28798D02*
Y23800D01*
X-17775Y22800D01*
X-15776D01*
X-14776Y23800D01*
Y28798D01*
X-12777Y22800D02*
X-10777D01*
X-11777D01*
Y28798D01*
X-12777Y27798D01*
X-66950Y46848D02*
X-62951D01*
X-64951D01*
Y40850D01*
X-60952D02*
Y46848D01*
X-57953D01*
X-56953Y45848D01*
Y43849D01*
X-57953Y42849D01*
X-60952D01*
X-54954Y43849D02*
X-50955D01*
X-48956Y46848D02*
Y42849D01*
X-46957Y40850D01*
X-44957Y42849D01*
Y46848D01*
X-42958D02*
Y40850D01*
X-39959D01*
X-38959Y41850D01*
Y42849D01*
X-39959Y43849D01*
X-42958D01*
X-39959D01*
X-38959Y44849D01*
Y45848D01*
X-39959Y46848D01*
X-42958D01*
X-36960Y40850D02*
Y44849D01*
X-34960Y46848D01*
X-32961Y44849D01*
Y40850D01*
Y43849D01*
X-36960D01*
X-30962Y46848D02*
X-26963D01*
X-28962D01*
Y40850D01*
X-24964Y46848D02*
X-20965D01*
X-22964D01*
Y40850D01*
X-20000Y100998D02*
X-16001D01*
X-18001D01*
Y95000D01*
X-14002D02*
Y100998D01*
X-11003D01*
X-10003Y99998D01*
Y97999D01*
X-11003Y96999D01*
X-14002D01*
X-8004Y97999D02*
X-4005D01*
X-2006Y100998D02*
X1993D01*
X-7D01*
Y95000D01*
X3992Y100998D02*
X7991Y95000D01*
Y100998D02*
X3992Y95000D01*
X15000Y100998D02*
X18999D01*
X16999D01*
Y95000D01*
X20998D02*
Y100998D01*
X23997D01*
X24997Y99998D01*
Y97999D01*
X23997Y96999D01*
X20998D01*
X26996Y97999D02*
X30995D01*
X32994Y95000D02*
Y100998D01*
X35993D01*
X36993Y99998D01*
Y97999D01*
X35993Y96999D01*
X32994D01*
X34993D02*
X36993Y95000D01*
X38992Y100998D02*
X42991Y95000D01*
Y100998D02*
X38992Y95000D01*
X5000Y83993D02*
X8999D01*
X6999D01*
Y77995D01*
X10998D02*
Y83993D01*
X13997D01*
X14997Y82993D01*
Y80994D01*
X13997Y79994D01*
X10998D01*
X16996Y80994D02*
X20995D01*
X26993Y83993D02*
X22994D01*
Y80994D01*
X24994D01*
X22994D01*
Y77995D01*
X28992Y83993D02*
X32991D01*
X30992D01*
Y77995D01*
X34990Y83993D02*
Y77995D01*
X37989D01*
X38989Y78994D01*
Y82993D01*
X37989Y83993D01*
X34990D01*
X40988D02*
X42988D01*
X41988D01*
Y77995D01*
X40988D01*
X42988D01*
X45987Y76995D02*
X49985D01*
X51985Y83993D02*
Y79994D01*
X53984Y77995D01*
X55984Y79994D01*
Y83993D01*
X61982Y82993D02*
X60982Y83993D01*
X58982D01*
X57983Y82993D01*
Y78994D01*
X58982Y77995D01*
X60982D01*
X61982Y78994D01*
X67980Y82993D02*
X66980Y83993D01*
X64981D01*
X63981Y82993D01*
Y78994D01*
X64981Y77995D01*
X66980D01*
X67980Y78994D01*
X-37400Y83993D02*
X-33401D01*
X-35401D01*
Y77995D01*
X-31402D02*
Y83993D01*
X-28403D01*
X-27403Y82993D01*
Y80994D01*
X-28403Y79994D01*
X-31402D01*
X-25404Y80994D02*
X-21405D01*
X-19406Y83993D02*
Y77995D01*
X-16407D01*
X-15407Y78994D01*
Y82993D01*
X-16407Y83993D01*
X-19406D01*
X-13408D02*
X-9409D01*
X-11408D01*
Y77995D01*
X-7410D02*
Y83993D01*
X-4411D01*
X-3411Y82993D01*
Y80994D01*
X-4411Y79994D01*
X-7410D01*
X-5410D02*
X-3411Y77995D01*
X127700Y94800D02*
Y98799D01*
X129699Y100798D01*
X131699Y98799D01*
Y94800D01*
Y97799D01*
X127700D01*
X133698Y99798D02*
X134698Y100798D01*
X136697D01*
X137697Y99798D01*
Y98799D01*
X136697Y97799D01*
X135697D01*
X136697D01*
X137697Y96799D01*
Y95800D01*
X136697Y94800D01*
X134698D01*
X133698Y95800D01*
X-65551Y95443D02*
X-66551Y96443D01*
X-68550D01*
X-69550Y95443D01*
Y94443D01*
X-68550Y93444D01*
X-66551D01*
X-65551Y92444D01*
Y91444D01*
X-66551Y90445D01*
X-68550D01*
X-69550Y91444D01*
X-63552Y95443D02*
X-62552Y96443D01*
X-60553D01*
X-59553Y95443D01*
Y94443D01*
X-60553Y93444D01*
X-61553D01*
X-60553D01*
X-59553Y92444D01*
Y91444D01*
X-60553Y90445D01*
X-62552D01*
X-63552Y91444D01*
X40449Y-38152D02*
X39449Y-37152D01*
X37450D01*
X36450Y-38152D01*
Y-39151D01*
X37450Y-40151D01*
X39449D01*
X40449Y-41151D01*
Y-42150D01*
X39449Y-43150D01*
X37450D01*
X36450Y-42150D01*
X46447Y-43150D02*
X42448D01*
X46447Y-39151D01*
Y-38152D01*
X45447Y-37152D01*
X43448D01*
X42448Y-38152D01*
X-96200Y-53500D02*
Y-47502D01*
X-93201D01*
X-92201Y-48502D01*
Y-50501D01*
X-93201Y-51501D01*
X-96200D01*
X-94201D02*
X-92201Y-53500D01*
X-90202Y-52500D02*
X-89202Y-53500D01*
X-87203D01*
X-86203Y-52500D01*
Y-48502D01*
X-87203Y-47502D01*
X-89202D01*
X-90202Y-48502D01*
Y-49501D01*
X-89202Y-50501D01*
X-86203D01*
X15700Y-98141D02*
Y-92143D01*
X18699D01*
X19699Y-93143D01*
Y-95142D01*
X18699Y-96142D01*
X15700D01*
X17699D02*
X19699Y-98141D01*
X21698Y-93143D02*
X22698Y-92143D01*
X24697D01*
X25697Y-93143D01*
Y-94142D01*
X24697Y-95142D01*
X23698D01*
X24697D01*
X25697Y-96142D01*
Y-97141D01*
X24697Y-98141D01*
X22698D01*
X21698Y-97141D01*
X-75843Y-58700D02*
Y-52702D01*
X-72844D01*
X-71844Y-53702D01*
Y-55701D01*
X-72844Y-56701D01*
X-75843D01*
X-73843D02*
X-71844Y-58700D01*
X-65846D02*
X-69845D01*
X-65846Y-54701D01*
Y-53702D01*
X-66846Y-52702D01*
X-68845D01*
X-69845Y-53702D01*
X-41200Y-100747D02*
Y-94749D01*
X-38201D01*
X-37201Y-95749D01*
Y-97748D01*
X-38201Y-98748D01*
X-41200D01*
X-39201D02*
X-37201Y-100747D01*
X-35202D02*
X-33203D01*
X-34202D01*
Y-94749D01*
X-35202Y-95749D01*
X-31950Y-89150D02*
Y-83152D01*
X-28951D01*
X-27951Y-84152D01*
Y-86151D01*
X-28951Y-87151D01*
X-31950D01*
X-25952Y-89150D02*
Y-83152D01*
X-22953D01*
X-21953Y-84152D01*
Y-86151D01*
X-22953Y-87151D01*
X-25952D01*
X-19954Y-86151D02*
X-15955D01*
X-9957Y-84152D02*
X-10957Y-83152D01*
X-12956D01*
X-13956Y-84152D01*
Y-85151D01*
X-12956Y-86151D01*
X-10957D01*
X-9957Y-87151D01*
Y-88150D01*
X-10957Y-89150D01*
X-12956D01*
X-13956Y-88150D01*
X-3959Y-84152D02*
X-4959Y-83152D01*
X-6958D01*
X-7958Y-84152D01*
Y-88150D01*
X-6958Y-89150D01*
X-4959D01*
X-3959Y-88150D01*
X-1960Y-83152D02*
Y-89150D01*
Y-87151D01*
X2039Y-83152D01*
X-960Y-86151D01*
X2039Y-89150D01*
X17891Y-134150D02*
Y-128152D01*
X20890D01*
X21890Y-129152D01*
Y-131151D01*
X20890Y-132151D01*
X17891D01*
X23889Y-134150D02*
Y-128152D01*
X26888D01*
X27888Y-129152D01*
Y-131151D01*
X26888Y-132151D01*
X23889D01*
X29887Y-131151D02*
X33886D01*
X35885Y-134150D02*
Y-128152D01*
X38884D01*
X39884Y-129152D01*
Y-131151D01*
X38884Y-132151D01*
X35885D01*
X37884D02*
X39884Y-134150D01*
X45882Y-129152D02*
X44882Y-128152D01*
X42883D01*
X41883Y-129152D01*
Y-130151D01*
X42883Y-131151D01*
X44882D01*
X45882Y-132151D01*
Y-133150D01*
X44882Y-134150D01*
X42883D01*
X41883Y-133150D01*
X47881Y-128152D02*
X51880D01*
X49880D01*
Y-134150D01*
X18050Y-24150D02*
Y-18152D01*
X21049D01*
X22049Y-19152D01*
Y-21151D01*
X21049Y-22151D01*
X18050D01*
X24048Y-24150D02*
Y-18152D01*
X27047D01*
X28047Y-19152D01*
Y-21151D01*
X27047Y-22151D01*
X24048D01*
X30046Y-21151D02*
X34045D01*
X36044Y-24150D02*
Y-18152D01*
X38043Y-20151D01*
X40043Y-18152D01*
Y-24150D01*
X42042Y-18152D02*
X44042D01*
X43042D01*
Y-24150D01*
X42042D01*
X44042D01*
X51039Y-19152D02*
X50040Y-18152D01*
X48040D01*
X47041Y-19152D01*
Y-20151D01*
X48040Y-21151D01*
X50040D01*
X51039Y-22151D01*
Y-23150D01*
X50040Y-24150D01*
X48040D01*
X47041Y-23150D01*
X56038Y-18152D02*
X54038D01*
X53039Y-19152D01*
Y-23150D01*
X54038Y-24150D01*
X56038D01*
X57037Y-23150D01*
Y-19152D01*
X56038Y-18152D01*
X-98101Y28026D02*
X-100101D01*
X-99101D01*
Y23028D01*
X-100101Y22028D01*
X-101100D01*
X-102100Y23028D01*
X-96102Y22028D02*
Y28026D01*
X-93103D01*
X-92103Y27027D01*
Y25027D01*
X-93103Y24027D01*
X-96102D01*
X-90104Y22028D02*
X-88104D01*
X-89104D01*
Y28026D01*
X-90104Y27027D01*
X-145401Y99798D02*
X-146401Y100798D01*
X-148400D01*
X-149400Y99798D01*
Y95800D01*
X-148400Y94800D01*
X-146401D01*
X-145401Y95800D01*
Y97799D01*
X-147401D01*
X-143402Y94800D02*
Y100798D01*
X-139403Y94800D01*
Y100798D01*
X-137404D02*
Y94800D01*
X-134405D01*
X-133405Y95800D01*
Y99798D01*
X-134405Y100798D01*
X-137404D01*
X127700Y-59202D02*
Y-65200D01*
X130699D01*
X131699Y-64200D01*
Y-60202D01*
X130699Y-59202D01*
X127700D01*
X133698Y-65200D02*
X135697D01*
X134698D01*
Y-59202D01*
X133698Y-60202D01*
X138696Y-65200D02*
X140696D01*
X139696D01*
Y-59202D01*
X138696Y-60202D01*
X69200Y-117642D02*
Y-123640D01*
X72199D01*
X73199Y-122640D01*
Y-118641D01*
X72199Y-117642D01*
X69200D01*
X75198Y-123640D02*
X77197D01*
X76198D01*
Y-117642D01*
X75198Y-118641D01*
X80196D02*
X81196Y-117642D01*
X83196D01*
X84195Y-118641D01*
Y-122640D01*
X83196Y-123640D01*
X81196D01*
X80196Y-122640D01*
Y-118641D01*
X-7000Y-148102D02*
Y-154100D01*
X-4001D01*
X-3001Y-153100D01*
Y-149102D01*
X-4001Y-148102D01*
X-7000D01*
X-1002Y-153100D02*
X-2Y-154100D01*
X1997D01*
X2997Y-153100D01*
Y-149102D01*
X1997Y-148102D01*
X-2D01*
X-1002Y-149102D01*
Y-150101D01*
X-2Y-151101D01*
X2997D01*
X-90800Y-117702D02*
Y-123700D01*
X-87801D01*
X-86801Y-122700D01*
Y-118702D01*
X-87801Y-117702D01*
X-90800D01*
X-80803D02*
X-82803Y-118702D01*
X-84802Y-120701D01*
Y-122700D01*
X-83802Y-123700D01*
X-81803D01*
X-80803Y-122700D01*
Y-121701D01*
X-81803Y-120701D01*
X-84802D01*
X-149400Y-59202D02*
Y-65200D01*
X-146401D01*
X-145401Y-64200D01*
Y-60202D01*
X-146401Y-59202D01*
X-149400D01*
X-139403D02*
X-143402D01*
Y-62201D01*
X-141403Y-61201D01*
X-140403D01*
X-139403Y-62201D01*
Y-64200D01*
X-140403Y-65200D01*
X-142402D01*
X-143402Y-64200D01*
X-81438Y-39002D02*
Y-45000D01*
X-78439D01*
X-77439Y-44000D01*
Y-40002D01*
X-78439Y-39002D01*
X-81438D01*
X-72441Y-45000D02*
Y-39002D01*
X-75440Y-42001D01*
X-71441D01*
X-41300Y-115002D02*
Y-121000D01*
X-38301D01*
X-37301Y-120000D01*
Y-116002D01*
X-38301Y-115002D01*
X-41300D01*
X-31303Y-121000D02*
X-35302D01*
X-31303Y-117001D01*
Y-116002D01*
X-32303Y-115002D01*
X-34302D01*
X-35302Y-116002D01*
X-53501Y-74796D02*
X-54501Y-73796D01*
X-56500D01*
X-57500Y-74796D01*
Y-78795D01*
X-56500Y-79794D01*
X-54501D01*
X-53501Y-78795D01*
X-51502Y-79794D02*
X-49503D01*
X-50502D01*
Y-73796D01*
X-51502Y-74796D01*
X-46504D02*
X-45504Y-73796D01*
X-43505D01*
X-42505Y-74796D01*
Y-78795D01*
X-43505Y-79794D01*
X-45504D01*
X-46504Y-78795D01*
Y-74796D01*
X57799Y-93061D02*
X56799Y-92061D01*
X54800D01*
X53800Y-93061D01*
Y-97059D01*
X54800Y-98059D01*
X56799D01*
X57799Y-97059D01*
X59798D02*
X60798Y-98059D01*
X62797D01*
X63797Y-97059D01*
Y-93061D01*
X62797Y-92061D01*
X60798D01*
X59798Y-93061D01*
Y-94060D01*
X60798Y-95060D01*
X63797D01*
X21540Y-60924D02*
X20540Y-59924D01*
X18541D01*
X17541Y-60924D01*
Y-64922D01*
X18541Y-65922D01*
X20540D01*
X21540Y-64922D01*
X26538Y-65922D02*
Y-59924D01*
X23539Y-62923D01*
X27538D01*
X32804Y-93149D02*
X31804Y-92149D01*
X29805D01*
X28806Y-93149D01*
Y-97148D01*
X29805Y-98147D01*
X31804D01*
X32804Y-97148D01*
X34804Y-93149D02*
X35803Y-92149D01*
X37803D01*
X38802Y-93149D01*
Y-94148D01*
X37803Y-95148D01*
X36803D01*
X37803D01*
X38802Y-96148D01*
Y-97148D01*
X37803Y-98147D01*
X35803D01*
X34804Y-97148D01*
X68299Y18898D02*
X67299Y19898D01*
X65300D01*
X64300Y18898D01*
Y14900D01*
X65300Y13900D01*
X67299D01*
X68299Y14900D01*
X74297Y13900D02*
X70298D01*
X74297Y17899D01*
Y18898D01*
X73297Y19898D01*
X71298D01*
X70298Y18898D01*
X42962Y-93061D02*
X41962Y-92061D01*
X39963D01*
X38963Y-93061D01*
Y-97059D01*
X39963Y-98059D01*
X41962D01*
X42962Y-97059D01*
X44961Y-98059D02*
X46960D01*
X45961D01*
Y-92061D01*
X44961Y-93061D01*
X-90800Y153400D02*
Y157399D01*
X-88801Y159398D01*
X-86801Y157399D01*
Y153400D01*
Y156399D01*
X-90800D01*
X-80803Y159398D02*
X-84802D01*
Y156399D01*
X-82803Y157399D01*
X-81803D01*
X-80803Y156399D01*
Y154400D01*
X-81803Y153400D01*
X-83802D01*
X-84802Y154400D01*
X69200Y153400D02*
Y157399D01*
X71199Y159398D01*
X73199Y157399D01*
Y153400D01*
Y156399D01*
X69200D01*
X78197Y153400D02*
Y159398D01*
X75198Y156399D01*
X79197D01*
X148100Y10900D02*
Y14899D01*
X150099Y16898D01*
X152099Y14899D01*
Y10900D01*
Y13899D01*
X148100D01*
X158097Y10900D02*
X154098D01*
X158097Y14899D01*
Y15898D01*
X157097Y16898D01*
X155098D01*
X154098Y15898D01*
D14*
X-95000Y-62400D02*
D03*
X-74604Y-67600D02*
D03*
X16900Y-107041D02*
D03*
X-40000Y-109600D02*
D03*
M02*
