G04*
G04 #@! TF.GenerationSoftware,Altium Limited,Altium Designer,18.1.7 (191)*
G04*
G04 Layer_Color=8388736*
%FSLAX25Y25*%
%MOIN*%
G70*
G01*
G75*
%ADD28R,0.04000X0.04000*%
G04:AMPARAMS|DCode=29|XSize=58mil|YSize=58mil|CornerRadius=29mil|HoleSize=0mil|Usage=FLASHONLY|Rotation=90.000|XOffset=0mil|YOffset=0mil|HoleType=Round|Shape=RoundedRectangle|*
%AMROUNDEDRECTD29*
21,1,0.05800,0.00000,0,0,90.0*
21,1,0.00000,0.05800,0,0,90.0*
1,1,0.05800,0.00000,0.00000*
1,1,0.05800,0.00000,0.00000*
1,1,0.05800,0.00000,0.00000*
1,1,0.05800,0.00000,0.00000*
%
%ADD29ROUNDEDRECTD29*%
%ADD30R,0.04400X0.03600*%
%ADD31R,0.03000X0.05600*%
%ADD32R,0.03600X0.04400*%
%ADD33R,0.04800X0.05400*%
%ADD34R,0.14200X0.07100*%
%ADD35R,0.19000X0.04800*%
%ADD36R,0.03000X0.05800*%
%ADD37R,0.05800X0.03000*%
%ADD38R,0.03600X0.05200*%
%ADD39R,0.10700X0.05600*%
%ADD40R,0.07500X0.03600*%
%ADD41C,0.06400*%
%ADD42C,0.04200*%
%ADD43C,0.17300*%
%ADD44C,0.05800*%
G36*
X-79880Y-128357D02*
X-80972Y-128925D01*
X-83108Y-130149D01*
X-85192Y-131461D01*
X-87221Y-132857D01*
X-88206Y-133596D01*
X-88206Y-133596D01*
X-88719Y-134425D01*
X-89403Y-136251D01*
X-89717Y-138176D01*
X-89649Y-140125D01*
X-89203Y-142023D01*
X-88394Y-143798D01*
X-87255Y-145381D01*
X-85829Y-146711D01*
X-85000Y-147224D01*
X-85000Y-147224D01*
X-84161Y-147685D01*
X-82337Y-148260D01*
X-80435Y-148468D01*
X-78529Y-148302D01*
X-76692Y-147767D01*
X-74995Y-146884D01*
X-73502Y-145686D01*
X-72272Y-144221D01*
X-71812Y-143382D01*
X-71812D01*
X-71600Y-142142D01*
X-71312Y-139642D01*
X-71164Y-137130D01*
X-71155Y-134613D01*
X-71220Y-133356D01*
X-71220D01*
X-71048Y-132804D01*
X-70958Y-131650D01*
X-71128Y-130505D01*
X-71549Y-129426D01*
X-72200Y-128469D01*
X-73048Y-127681D01*
X-74051Y-127102D01*
X-75157Y-126762D01*
X-76312Y-126676D01*
X-77456Y-126851D01*
X-78533Y-127276D01*
X-79488Y-127931D01*
X-79880Y-128356D01*
Y-128357D01*
D02*
G37*
G36*
X-133356Y-71220D02*
X-134586Y-71166D01*
X-137049Y-71159D01*
X-139509Y-71252D01*
X-141964Y-71447D01*
X-143186Y-71594D01*
X-143186Y-71594D01*
X-144045Y-72056D01*
X-145551Y-73295D01*
X-146785Y-74805D01*
X-147701Y-76527D01*
X-148263Y-78394D01*
X-148451Y-80336D01*
X-148256Y-82276D01*
X-147686Y-84141D01*
X-147224Y-85000D01*
X-147224Y-85000D01*
X-146728Y-85818D01*
X-145436Y-87229D01*
X-143893Y-88360D01*
X-142159Y-89169D01*
X-140301Y-89624D01*
X-138389Y-89707D01*
X-136498Y-89417D01*
X-134700Y-88763D01*
X-133882Y-88267D01*
X-133882Y-88267D01*
X-133078Y-87299D01*
X-131579Y-85277D01*
X-130194Y-83176D01*
X-128928Y-81001D01*
X-128356Y-79880D01*
X-128356Y-79880D01*
X-127931Y-79488D01*
X-127276Y-78533D01*
X-126851Y-77456D01*
X-126676Y-76312D01*
X-126762Y-75157D01*
X-127102Y-74051D01*
X-127681Y-73048D01*
X-128469Y-72200D01*
X-129426Y-71549D01*
X-130505Y-71128D01*
X-131650Y-70958D01*
X-132804Y-71048D01*
X-133356Y-71220D01*
X-133356Y-71220D01*
D02*
G37*
G36*
X-151042Y6511D02*
X-152074Y7183D01*
X-154190Y8442D01*
X-156356Y9612D01*
X-158569Y10693D01*
X-159696Y11188D01*
X-159696Y11188D01*
X-160670Y11228D01*
X-162597Y10926D01*
X-164428Y10254D01*
X-166092Y9238D01*
X-167526Y7916D01*
X-168675Y6340D01*
X-169494Y4570D01*
X-169952Y2674D01*
X-169992Y1700D01*
X-169992Y1700D01*
X-169980Y743D01*
X-169585Y-1129D01*
X-168832Y-2888D01*
X-167751Y-4466D01*
X-166382Y-5803D01*
X-164779Y-6847D01*
X-163003Y-7559D01*
X-161122Y-7910D01*
X-160166Y-7899D01*
X-160166Y-7899D01*
X-158981Y-7475D01*
X-156662Y-6497D01*
X-154401Y-5392D01*
X-152205Y-4163D01*
X-151142Y-3489D01*
X-150576Y-3368D01*
X-149527Y-2878D01*
X-148613Y-2168D01*
X-147881Y-1271D01*
X-147367Y-234D01*
X-147098Y892D01*
X-147086Y2050D01*
X-147333Y3181D01*
X-147826Y4228D01*
X-148540Y5139D01*
X-149440Y5868D01*
X-150479Y6378D01*
X-151042Y6511D01*
X-151042Y6511D01*
D02*
G37*
G36*
X-128356Y79880D02*
X-128925Y80972D01*
X-130149Y83108D01*
X-131461Y85192D01*
X-132857Y87221D01*
X-133596Y88206D01*
X-133596Y88206D01*
X-134425Y88719D01*
X-136251Y89403D01*
X-138176Y89717D01*
X-140125Y89649D01*
X-142023Y89203D01*
X-143798Y88394D01*
X-145381Y87255D01*
X-146711Y85829D01*
X-147224Y85000D01*
X-147224D01*
X-147685Y84161D01*
X-148260Y82337D01*
X-148468Y80435D01*
X-148302Y78529D01*
X-147767Y76692D01*
X-146883Y74995D01*
X-145686Y73502D01*
X-144221Y72272D01*
X-143382Y71812D01*
X-142142Y71599D01*
X-139642Y71312D01*
X-137130Y71164D01*
X-134613Y71155D01*
X-133356Y71220D01*
X-133356Y71220D01*
X-132804Y71047D01*
X-131650Y70958D01*
X-130505Y71128D01*
X-129426Y71549D01*
X-128469Y72200D01*
X-127681Y73048D01*
X-127102Y74051D01*
X-126762Y75157D01*
X-126676Y76312D01*
X-126851Y77456D01*
X-127276Y78533D01*
X-127931Y79488D01*
X-128357Y79880D01*
X-128356D01*
D02*
G37*
G36*
X-71220Y133356D02*
X-71166Y134586D01*
X-71159Y137049D01*
X-71252Y139509D01*
X-71447Y141964D01*
X-71594Y143186D01*
X-71594Y143186D01*
X-72056Y144045D01*
X-73295Y145551D01*
X-74805Y146785D01*
X-76527Y147701D01*
X-78394Y148264D01*
X-80335Y148451D01*
X-82276Y148256D01*
X-84141Y147686D01*
X-85000Y147224D01*
X-85000Y147224D01*
X-85818Y146728D01*
X-87229Y145436D01*
X-88360Y143893D01*
X-89169Y142159D01*
X-89624Y140301D01*
X-89707Y138389D01*
X-89417Y136498D01*
X-88763Y134700D01*
X-88267Y133882D01*
X-88267Y133882D01*
X-87299Y133078D01*
X-85277Y131579D01*
X-83176Y130194D01*
X-81001Y128928D01*
X-79880Y128356D01*
X-79880Y128356D01*
X-79488Y127931D01*
X-78533Y127276D01*
X-77456Y126851D01*
X-76312Y126676D01*
X-75157Y126762D01*
X-74051Y127102D01*
X-73048Y127681D01*
X-72200Y128469D01*
X-71549Y129426D01*
X-71128Y130505D01*
X-70958Y131650D01*
X-71048Y132804D01*
X-71220Y133356D01*
Y133356D01*
D02*
G37*
G36*
X-3484Y-161140D02*
X-4136Y-162184D01*
X-5353Y-164325D01*
X-6481Y-166513D01*
X-7519Y-168746D01*
X-7992Y-169883D01*
X-7992Y-169883D01*
X-8013Y-170858D01*
X-7674Y-172778D01*
X-6966Y-174595D01*
X-5918Y-176240D01*
X-4569Y-177648D01*
X-2970Y-178766D01*
X-1185Y-179550D01*
X719Y-179971D01*
X1694Y-179992D01*
X1694Y-179992D01*
X2650Y-179962D01*
X4514Y-179531D01*
X6258Y-178744D01*
X7815Y-177632D01*
X9125Y-176238D01*
X10138Y-174615D01*
X10815Y-172825D01*
X11130Y-170938D01*
X11100Y-169982D01*
X11100Y-169982D01*
X10653Y-168806D01*
X9630Y-166506D01*
X8482Y-164267D01*
X7211Y-162095D01*
X6516Y-161046D01*
X6516Y-161046D01*
X6384Y-160482D01*
X5875Y-159443D01*
X5146Y-158543D01*
X4236Y-157828D01*
X3188Y-157334D01*
X2057Y-157087D01*
X900Y-157098D01*
X-226Y-157367D01*
X-1264Y-157880D01*
X-2161Y-158612D01*
X-2872Y-159525D01*
X-3362Y-160574D01*
X-3484Y-161140D01*
X-3484Y-161140D01*
D02*
G37*
G36*
X71220Y-133356D02*
X71166Y-134586D01*
X71158Y-137049D01*
X71252Y-139509D01*
X71447Y-141964D01*
X71594Y-143186D01*
X71594Y-143186D01*
X72056Y-144045D01*
X73295Y-145551D01*
X74805Y-146785D01*
X76527Y-147701D01*
X78394Y-148263D01*
X80335Y-148451D01*
X82276Y-148256D01*
X84141Y-147686D01*
X85000Y-147224D01*
X85000Y-147224D01*
X85818Y-146728D01*
X87229Y-145436D01*
X88360Y-143893D01*
X89169Y-142159D01*
X89624Y-140301D01*
X89707Y-138389D01*
X89417Y-136498D01*
X88763Y-134700D01*
X88267Y-133882D01*
X88267Y-133882D01*
X87299Y-133078D01*
X85277Y-131579D01*
X83176Y-130194D01*
X81001Y-128928D01*
X79880Y-128356D01*
X79880Y-128357D01*
X79488Y-127931D01*
X78533Y-127276D01*
X77456Y-126851D01*
X76312Y-126676D01*
X75157Y-126762D01*
X74051Y-127102D01*
X73048Y-127681D01*
X72200Y-128469D01*
X71549Y-129426D01*
X71128Y-130505D01*
X70958Y-131650D01*
X71048Y-132804D01*
X71220Y-133356D01*
X71220Y-133356D01*
D02*
G37*
G36*
X128356Y-79880D02*
X128925Y-80972D01*
X130149Y-83108D01*
X131461Y-85192D01*
X132857Y-87221D01*
X133596Y-88206D01*
Y-88206D01*
X134424Y-88719D01*
X136251Y-89403D01*
X138176Y-89717D01*
X140125Y-89649D01*
X142023Y-89203D01*
X143798Y-88394D01*
X145381Y-87255D01*
X146711Y-85829D01*
X147224Y-85000D01*
X147224Y-85000D01*
X147685Y-84161D01*
X148260Y-82337D01*
X148468Y-80435D01*
X148302Y-78529D01*
X147767Y-76692D01*
X146883Y-74995D01*
X145686Y-73502D01*
X144221Y-72272D01*
X143382Y-71812D01*
X143382Y-71812D01*
X142142Y-71600D01*
X139642Y-71312D01*
X137130Y-71164D01*
X134613Y-71155D01*
X133356Y-71220D01*
X133356Y-71220D01*
X132804Y-71047D01*
X131650Y-70958D01*
X130505Y-71128D01*
X129426Y-71549D01*
X128469Y-72200D01*
X127681Y-73048D01*
X127102Y-74051D01*
X126762Y-75157D01*
X126676Y-76312D01*
X126851Y-77456D01*
X127276Y-78533D01*
X127931Y-79488D01*
X128357Y-79880D01*
X128356Y-79880D01*
D02*
G37*
G36*
X151043Y-6487D02*
X152075Y-7159D01*
X154192Y-8417D01*
X156358Y-9588D01*
X158570Y-10668D01*
X159698Y-11163D01*
X160672Y-11203D01*
X162599Y-10900D01*
X164429Y-10228D01*
X166094Y-9211D01*
X167528Y-7890D01*
X168676Y-6313D01*
X169495Y-4543D01*
X169952Y-2648D01*
X169992Y-1673D01*
X169980Y-717D01*
X169585Y1155D01*
X168832Y2914D01*
X167750Y4492D01*
X166381Y5829D01*
X164778Y6873D01*
X163002Y7584D01*
X161121Y7935D01*
X160164Y7924D01*
X160164Y7924D01*
X158980Y7500D01*
X156661Y6521D01*
X154400Y5416D01*
X152204Y4187D01*
X151142Y3512D01*
X151142Y3512D01*
X150576Y3391D01*
X149527Y2902D01*
X148613Y2191D01*
X147881Y1294D01*
X147367Y257D01*
X147098Y-869D01*
X147086Y-2027D01*
X147334Y-3158D01*
X147827Y-4205D01*
X148541Y-5116D01*
X149441Y-5845D01*
X150480Y-6355D01*
X151043Y-6487D01*
X151043D01*
D02*
G37*
G36*
X133356Y71220D02*
X134586Y71166D01*
X137049Y71159D01*
X139509Y71252D01*
X141964Y71447D01*
X143186Y71594D01*
X143186Y71594D01*
X144045Y72056D01*
X145551Y73295D01*
X146785Y74805D01*
X147701Y76527D01*
X148264Y78394D01*
X148451Y80335D01*
X148256Y82276D01*
X147686Y84141D01*
X147224Y85000D01*
X146728Y85818D01*
X145436Y87229D01*
X143893Y88360D01*
X142159Y89169D01*
X140301Y89624D01*
X138389Y89707D01*
X136498Y89417D01*
X134700Y88763D01*
X133882Y88267D01*
X133882Y88267D01*
X133078Y87299D01*
X131579Y85277D01*
X130194Y83176D01*
X128928Y81001D01*
X128356Y79880D01*
X128356Y79880D01*
X127931Y79488D01*
X127276Y78533D01*
X126851Y77456D01*
X126676Y76312D01*
X126762Y75157D01*
X127102Y74051D01*
X127681Y73048D01*
X128469Y72200D01*
X129426Y71549D01*
X130505Y71128D01*
X131650Y70958D01*
X132804Y71047D01*
X133356Y71220D01*
X133356Y71220D01*
D02*
G37*
G36*
X79880Y128356D02*
X80972Y128925D01*
X83108Y130149D01*
X85192Y131461D01*
X87221Y132857D01*
X88206Y133596D01*
X88719Y134424D01*
X89403Y136251D01*
X89717Y138176D01*
X89649Y140125D01*
X89203Y142023D01*
X88394Y143798D01*
X87255Y145381D01*
X85829Y146711D01*
X85000Y147224D01*
Y147224D01*
X84161Y147685D01*
X82337Y148260D01*
X80435Y148468D01*
X78529Y148302D01*
X76692Y147767D01*
X74995Y146884D01*
X73502Y145686D01*
X72272Y144221D01*
X71812Y143382D01*
X71812Y143382D01*
X71600Y142142D01*
X71312Y139642D01*
X71164Y137130D01*
X71155Y134613D01*
X71220Y133356D01*
X71220Y133356D01*
X71048Y132804D01*
X70958Y131650D01*
X71128Y130505D01*
X71549Y129426D01*
X72200Y128469D01*
X73048Y127681D01*
X74051Y127102D01*
X75157Y126762D01*
X76312Y126676D01*
X77456Y126851D01*
X78533Y127276D01*
X79488Y127931D01*
X79880Y128356D01*
X79880D01*
D02*
G37*
D28*
X-40000Y-131948D02*
D03*
Y-125995D02*
D03*
X-83249Y-59800D02*
D03*
Y-53847D02*
D03*
D29*
X-15000Y90000D02*
D03*
X-25000D02*
D03*
X-5000D02*
D03*
X4800D02*
D03*
X-65000Y35000D02*
D03*
X20000Y-30000D02*
D03*
X-30000Y-95000D02*
D03*
X19841Y-140000D02*
D03*
D30*
X-95000Y-65000D02*
D03*
Y-59841D02*
D03*
X55000Y-109600D02*
D03*
Y-104441D02*
D03*
X-74604Y-65000D02*
D03*
Y-70159D02*
D03*
X16900Y-104441D02*
D03*
Y-109600D02*
D03*
X40157D02*
D03*
Y-104441D02*
D03*
X30000Y-109600D02*
D03*
Y-104441D02*
D03*
X-40000Y-112200D02*
D03*
Y-107041D02*
D03*
D31*
X-58740Y-59800D02*
D03*
X-51200D02*
D03*
Y-70118D02*
D03*
X-55000D02*
D03*
X-58740D02*
D03*
D32*
X-55159Y-85000D02*
D03*
X-50000D02*
D03*
X19841Y-71122D02*
D03*
X25000D02*
D03*
D33*
X59900D02*
D03*
X50000D02*
D03*
X40157D02*
D03*
X59900Y-48800D02*
D03*
X50000D02*
D03*
X40157D02*
D03*
D34*
X-96000Y15450D02*
D03*
Y-11336D02*
D03*
D35*
X-75433Y6050D02*
D03*
Y-1887D02*
D03*
D36*
X-11024Y16900D02*
D03*
X-7874D02*
D03*
X-4724D02*
D03*
X-1575D02*
D03*
X1600D02*
D03*
X4800D02*
D03*
X7900D02*
D03*
X11100D02*
D03*
Y-16900D02*
D03*
X7900D02*
D03*
X4800D02*
D03*
X1600D02*
D03*
X-1575D02*
D03*
X-4724D02*
D03*
X-7874Y-16900D02*
D03*
X-11024Y-16900D02*
D03*
D37*
X16900Y11100D02*
D03*
Y7900D02*
D03*
Y4800D02*
D03*
Y1600D02*
D03*
Y-1575D02*
D03*
Y-4724D02*
D03*
X16900Y-7874D02*
D03*
X16900Y-11024D02*
D03*
X-16900D02*
D03*
Y-7874D02*
D03*
Y-4724D02*
D03*
Y-1575D02*
D03*
Y1600D02*
D03*
Y4800D02*
D03*
Y7900D02*
D03*
Y11100D02*
D03*
D38*
X-68760Y84895D02*
D03*
Y71105D02*
D03*
X-51200D02*
D03*
Y84895D02*
D03*
D39*
X70000Y6715D02*
D03*
Y-6281D02*
D03*
D40*
X-40000Y6300D02*
D03*
Y11100D02*
D03*
Y15824D02*
D03*
D41*
X21600Y130194D02*
D03*
X-18400D02*
D03*
D42*
X44094Y-60000D02*
D03*
X56000D02*
D03*
D43*
X159992Y-1575D02*
D03*
X138564Y80000D02*
D03*
X80000Y138564D02*
D03*
X-80000D02*
D03*
X-159992Y1600D02*
D03*
X-138564Y80000D02*
D03*
Y-80000D02*
D03*
X-80000Y-138564D02*
D03*
X1600Y-169992D02*
D03*
X80000Y-138564D02*
D03*
X138564Y-80000D02*
D03*
D44*
X55000Y-85600D02*
D03*
X-43000D02*
D03*
X-5000Y84000D02*
D03*
X6600Y98200D02*
D03*
X23800Y-12900D02*
D03*
X-1575Y8600D02*
D03*
X-38900Y-18000D02*
D03*
X11100Y-7200D02*
D03*
X-25600Y-2400D02*
D03*
X-29500Y10700D02*
D03*
X55000Y-93900D02*
D03*
X-67600Y-91900D02*
D03*
X14200Y-41100D02*
D03*
X-22000Y-80000D02*
D03*
X-11300Y86100D02*
D03*
X-15000Y-125000D02*
D03*
X30000D02*
D03*
M02*
